{"title":"Water For Elephants 2011 R5 LINE x264 Feel-Free","uid":6415522,"size":1239203868,"categoryP":"video","categoryS":"movies","magnet":"?xt=urn:btih:9cfaec1a4dd5fd7e8c70edce74c22bea242d5bd1&amp;dn=Water+For+Elephants+2011+R5+LINE+x264+Feel-Free&amp;tr=udp%3A%2F%2Ftracker.openbittorrent.com%3A80&amp;tr=udp%3A%2F%2Fopen.demonii.com%3A1337&amp;tr=udp%3A%2F%2Ftracker.coppersurfer.tk%3A6969&amp;tr=udp%3A%2F%2Fexodus.desync.com%3A6969","seeders":0,"leechers":0,"uploader":"hiest","files":-1,"time":1306151767,"description":"Genre:Drama\n Language:English\n IMDb: &lt;a href=&quot;\nhttp://www.imdb.com/title/tt1067583/&quot; rel=&quot;nofollow&quot; target=&quot;_NEW&quot;&gt;\nhttp://www.imdb.com/title/tt1067583/&lt;/a&gt;\n Source:DVD-9/IMAGINE&amp;Hive-CM8 Thanks!\n\n Format : MPEG-4\n Format profile : Base Media\n Codec ID : isom\n File size : 1.15 GiB\n Duration : 1h 55mn\n Overall bit rate : 1 427 Kbps\n\n Video\n Format profile : &lt;a class=&quot;__cf_email__&quot; href=&quot;/cdn-cgi/l/email-protection&quot; data-cfemail=&quot;c28aaba5aa828ef6ecf3&quot;&gt;[email&amp;#160;protected]&lt;/a&gt;&lt;script cf-hash='f9e31' type=&quot;text/javascript&quot;&gt;\n/* &lt;![CDATA[ */!function(){try{var t=&quot;currentScript&quot;in document?document.currentScript:function(){for(var t=document.getElementsByTagName(&quot;script&quot;),e=t.length;e--;)if(t[e].getAttribute(&quot;cf-hash&quot;))return t[e]}();if(t&amp;&amp;t.previousSibling){var e,r,n,i,c=t.previousSibling,a=c.getAttribute(&quot;data-cfemail&quot;);if(a){for(e=&quot;&quot;,r=parseInt(a.substr(0,2),16),n=2;a.length-n;n+=2)i=parseInt(a.substr(n,2),16)^r,e+=String.fromCharCode(i);e=document.createTextNode(e),c.parentNode.replaceChild(e,c)}}}catch(u){}}();/* ]]&gt; */&lt;/script&gt;\n Format settings, CABAC : Yes\n Format settings, ReFrames : 3 frames\n Codec ID : avc1\n Codec ID/Info : Advanced Video Coding\n Duration : 1h 55mn\n Bit rate mode : Variable\n Bit rate : 1 000 Kbps\n Maximum bit rate : 4 685 Kbps\n Width : 720 pixels\n Height : 304 pixels\n Display aspect ratio : 2.35:1\n Frame rate mode : Constant\n Frame rate : 25.000 fps\n Color space : YUV\n Chroma subsampling : 4:2:0\n Bit depth : 8 bits\n Scan type : Progressive\n Bits/(Pixel*Frame) : 0.183\n Stream size : 810 MiB (69%)\n Writing library : x264\n\n Audio\n ID : 2\n Format : AAC\n Format/Info : Advanced Audio Codec\n Format version : Version 4\n Format profile : LC\n Format settings, SBR : No\n Codec ID : 40\n Duration : 1h 55mn\n Bit rate mode : Variable\n Bit rate : 444 Kbps\n Maximum bit rate : 497 Kbps\n Channel(s) : 6 channels\n Channel positions : Front: L C R, Side: L R, LFE\n Sampling rate : 48.0 KHz\n Stream size : 367 MiB (31%)\n\n\n Plot:\n A veterinary student abandons his studies after his parents are killed and joins a traveling circus as their vet\n\n\nGreets:\n\n INK,CRYS,IMAGINE,LKRG,FXG,3Li,FLAWL3SS,TA,iLLUSiON,ViSiON,DTRG SAFCuk009,LU,TheFalcon007,MYSTiC,PrisM,Noir,WBZ,LAP,Rx,Kingdom,SAFCuk009+Fabreezy,HDLiTE,TWiZTED,ExtraTorrentRG.ELEKTRI4KA,MAGNAT,CM8\n And to all the other p2p grps past and present\n\n\n\n==================================  &lt;a href=&quot;\nhttp://thepiratebay.se/user/hiest&quot; rel=&quot;nofollow&quot; target=&quot;_NEW&quot;&gt;\nhttp://thepiratebay.se/user/hiest&lt;/a&gt;\n==================================\n\n\n\nScreenshots:\n &lt;a href=&quot;\nhttp://www.pix2links.com/images/93856969560990343324.png&quot; rel=&quot;nofollow&quot; target=&quot;_NEW&quot;&gt;\nhttp://www.pix2links.com/images/93856969560990343324.png&lt;/a&gt;\n &lt;a href=&quot;\nhttp://www.pix2links.com/images/01666279050666146781.png&quot; rel=&quot;nofollow&quot; target=&quot;_NEW&quot;&gt;\nhttp://www.pix2links.com/images/01666279050666146781.png&lt;/a&gt;\n &lt;a href=&quot;\nhttp://www.pix2links.com/images/22907632642703659649.png&quot; rel=&quot;nofollow&quot; target=&quot;_NEW&quot;&gt;\nhttp://www.pix2links.com/images/22907632642703659649.png&lt;/a&gt;\n &lt;a href=&quot;\nhttp://www.pix2links.com/images/66621265579317649492.png&quot; rel=&quot;nofollow&quot; target=&quot;_NEW&quot;&gt;\nhttp://www.pix2links.com/images/66621265579317649492.png&lt;/a&gt;\n &lt;a href=&quot;\nhttp://www.pix2links.com/images/11638090636125113271.png&quot; rel=&quot;nofollow&quot; target=&quot;_NEW&quot;&gt;\nhttp://www.pix2links.com/images/11638090636125113271.png&lt;/a&gt;\n &lt;a href=&quot;\nhttp://www.pix2links.com/images/57618965704543825391.png&quot; rel=&quot;nofollow&quot; target=&quot;_NEW&quot;&gt;\nhttp://www.pix2links.com/images/57618965704543825391.png&lt;/a&gt;","torrent":{"xt":"urn:btih:9cfaec1a4dd5fd7e8c70edce74c22bea242d5bd1","amp;dn":"Water+For+Elephants+2011+R5+LINE+x264+Feel-Free","amp;tr":["udp%3A%2F%2Ftracker.openbittorrent.com%3A80","udp%3A%2F%2Fopen.demonii.com%3A1337","udp%3A%2F%2Ftracker.coppersurfer.tk%3A6969","udp%3A%2F%2Fexodus.desync.com%3A6969"],"infoHash":"9cfaec1a4dd5fd7e8c70edce74c22bea242d5bd1","infoHashBuffer":{"type":"Buffer","data":[156,250,236,26,77,213,253,126,140,112,237,206,116,194,43,234,36,45,91,209]},"announce":[],"urlList":[]}}